<svg xmlns="http://www.w3.org/2000/svg" width="605" height="121" viewBox="0 0 605 121"><g transform="translate(-4017.851 -5197.775)"><rect width="40" height="40" transform="translate(4541.851 5278.775)" fill="#fff"/><rect width="41" height="40" transform="translate(4500.851 5197.775)" fill="#fff"/><rect width="40" height="41" transform="translate(4460.851 5237.775)" fill="#fff"/><rect width="40" height="40" transform="translate(4420.851 5278.775)" fill="#fff"/><rect width="40.258" height="40.258" transform="translate(4299.995 5198)" fill="#fff"/><rect width="40" height="40" transform="translate(4339.851 5278.775)" fill="#fff"/><rect width="40" height="41" transform="translate(4259.851 5237.775)" fill="#fff"/><rect width="41" height="40" transform="translate(4218.851 5278.775)" fill="#fff"/><rect width="40" height="41" transform="translate(4339.851 5237.775)" fill="#fff"/><rect width="40" height="40" transform="translate(4299.851 5278.775)" fill="#fff"/><rect width="40" height="40" transform="translate(4178.851 5278.775)" fill="#fff"/><rect width="41" height="41" transform="translate(4218.851 5237.775)" fill="#fff"/><rect width="40" height="40" transform="translate(4178.851 5197.775)" fill="#fff"/><rect width="40" height="40" transform="translate(4138.851 5278.775)" fill="#fff"/><rect width="40" height="40" transform="translate(4017.851 5278.775)" fill="#fff"/><rect width="40" height="41" transform="translate(4098.851 5237.775)" fill="#fff"/><rect width="40" height="40" transform="translate(4098.851 5278.775)" fill="#fff"/><rect width="41" height="41" transform="translate(4500.851 5237.775)" fill="#fff"/><rect width="1" height="1" transform="translate(4621.851 5317.775)" fill="#fff" opacity="0"/></g></svg>