<svg xmlns="http://www.w3.org/2000/svg" width="45.927" height="57.693" style="width:100%"><path d="M18.659.001v7.018H1.685A1.7 1.7 0 000 8.701v7.99h29.64a3.814 3.814 0 012.808.936 3.417 3.417 0 011 2.621 3.417 3.417 0 01-1 2.621 3.814 3.814 0 01-2.808.937H0v25.21a1.7 1.7 0 001.685 1.685h9.862V33.415h18.72a4.185 4.185 0 013 1.061 3.917 3.917 0 010 5.491 4.185 4.185 0 01-3 1.061H18.658v16.665h11.545v-6.992h1.309q7.426 0 10.92-3.869a13.89 13.89 0 003.495-9.673 12.872 12.872 0 00-1-5.366 9.271 9.271 0 00-3.37-3.869 9.316 9.316 0 002.372-2.871 10 10 0 001.124-5.052 13.416 13.416 0 00-1.5-6.3 11.212 11.212 0 00-4.739-4.81 17.383 17.383 0 00-8.61-1.872V.001z" fill="#757575"/></svg>