<svg xmlns="http://www.w3.org/2000/svg" width="45.927" height="57.693" viewBox="0 0 45.927 57.693" style="width: 100%;">
    <g id="layer1" transform="translate(-3.456 -263.135)">
    <g id="g8369" transform="translate(3.456 263.135)">
        <path id="path8367" d="M22.112,0V7.018H5.138A1.7,1.7,0,0,0,3.453,8.7V16.69h29.64a3.814,3.814,0,0,1,2.808.936,3.417,3.417,0,0,1,1,2.621,3.417,3.417,0,0,1-1,2.621,3.814,3.814,0,0,1-2.808.937H3.453V49.015A1.7,1.7,0,0,0,5.138,50.7H15V33.414h18.72a4.185,4.185,0,0,1,3,1.061,3.917,3.917,0,0,1,0,5.491,4.185,4.185,0,0,1-3,1.061H22.111V50.7h0v6.992H33.656V50.7h1.309q7.426,0,10.92-3.869a13.89,13.89,0,0,0,3.495-9.673,12.872,12.872,0,0,0-1-5.366,9.271,9.271,0,0,0-3.37-3.869,9.316,9.316,0,0,0,2.372-2.871A10,10,0,0,0,48.506,20a13.416,13.416,0,0,0-1.5-6.3A11.212,11.212,0,0,0,42.267,8.89a17.383,17.383,0,0,0-8.61-1.872V0Z" transform="translate(-3.453 0.001)" fill="#1e264e"/>
    </g>
    </g>
</svg>